<?xml version="1.0" encoding="UTF-8"?>
<svg id="Ebene_1" xmlns="http://www.w3.org/2000/svg" version="1.1" viewBox="0 0 110 135">
  <!-- Generator: Adobe Illustrator 29.3.1, SVG Export Plug-In . SVG Version: 2.1.0 Build 151)  -->
  <defs>
    <style>
      .st0 {
        fill: #bd7d00;
      }
    </style>
  </defs>
  <path class="st0" d="M86.1,47.9l-23.9-3.7c3.3-2.3,5.4-6.1,5.4-10.3s-3.7-10.5-8.8-12.1l8.3-8.3c.8-.8.8-2.1,0-2.9-.8-.8-2.1-.8-2.9,0l-9.2,9.2-9.1-9.2c-.8-.8-2.1-.8-2.9,0-.8.8-.8,2.1,0,2.9l8.2,8.3c-5.1,1.6-8.8,6.4-8.8,12s2.1,8.1,5.4,10.3l-23.9,3.7c-10,1.5-19,9.3-21.5,18.4,0,0,0,.2,0,.2-1.7,6.6-.7,12.7,2.9,17.4,3.5,4.6,9.2,7.1,15.8,7.1h.5c4.7,0,9.5-1.8,13.5-4.6.3,3.4.8,6.7,1.8,10,0,0,0,0,0,.2,0,.5.2.9.5,1.3.7,2.2,1.5,4.3,2.5,6.3,2.9,5.9,7,10.9,11.4,13.9,1.1.8,2.4,1.2,3.7,1.2s2.6-.4,3.7-1.2c4.4-3,8.4-7.9,11.4-13.9,2.7-5.5,4.4-11.6,4.8-17.7,4.1,2.9,8.9,4.6,13.7,4.7h.3c6.6,0,12.3-2.5,15.8-7.1,3.6-4.6,4.6-10.8,2.9-17.6-2.5-9.2-11.5-16.9-21.5-18.4h0ZM46.4,33.9c0-4.7,3.9-8.6,8.6-8.6s8.6,3.9,8.6,8.6-3.9,8.6-8.6,8.6-8.6-3.9-8.6-8.6ZM65,73.9h-19.9l9.9-23.5,9.9,23.5ZM21.4,87c-5.5,0-10.1-1.9-12.9-5.5s-3.6-8.5-2.2-14c2-7.6,9.9-14.2,18.2-15.5l27.2-4.2-10.7,25.3c-3.2,7.8-11.6,13.7-19.6,13.9h0ZM66.4,102.3c-2.6,5.3-6.2,9.7-10,12.3-.8.6-1.9.6-2.8,0-3.8-2.6-7.4-7-10-12.3-.6-1.2-1.1-2.5-1.6-3.8h26.1c-.4,1.3-1,2.5-1.6,3.8h0ZM69.4,94.5h-28.7c-1-3.7-1.5-7.6-1.6-11.4,1.5-1.5,2.9-3.2,4-5.1h23.9c1.1,1.8,2.5,3.5,4,5.1,0,3.9-.5,7.7-1.6,11.4h0ZM101.5,81.4c-2.8,3.6-7.4,5.6-13,5.5-7.8-.2-16.2-6.1-19.5-13.9l-10.7-25.3,27.2,4.2c8.3,1.3,16.1,7.9,18.2,15.6,1.4,5.3.6,10.2-2.2,13.8h0Z"/>
</svg>