<?xml version="1.0" encoding="UTF-8"?>
<svg id="Ebene_1" xmlns="http://www.w3.org/2000/svg" xmlns:xlink="http://www.w3.org/1999/xlink" version="1.1" viewBox="0 0 328 410">
  <!-- Generator: Adobe Illustrator 29.3.1, SVG Export Plug-In . SVG Version: 2.1.0 Build 151)  -->
  <defs>
    <style>
      .st0 {
        fill: none;
        stroke: #3200ff;
        stroke-linecap: round;
        stroke-linejoin: round;
        stroke-width: 10px;
      }
    </style>
  </defs>
  <path class="st0" d="M164,132.9l80-80.1c.3-.3.6-.6.9-.9.6-.6,1.3-1.1,2-1.6,2.4-1.7,5.2-2.8,8-3.4.8-.2,1.7-.3,2.5-.3.4,0,.8,0,1.2,0,.4,0,.8,0,1.2,0,1.1,0,1.4,0,2.5.3,2.5.4,4.9,1.3,7.1,2.5,1.8,1,3.5,2.3,4.9,3.9,1.4,1.5,2.6,3.3,3.6,5.1,1.1,2.3,1.8,4.7,2.1,7.2.3,2.9,0,5.9-.9,8.7-.8,2.4-2,4.6-3.5,6.6-.7.9-.9,1.1-1.7,1.9l-80,80.1,80,80.1c.3.3.6.6.9.9.6.6,1.1,1.3,1.6,2,1.7,2.4,2.8,5.2,3.4,8,.5,2.5.5,5,.1,7.5-.3,2.1-1,4.1-1.9,6-1.1,2.3-2.6,4.3-4.5,6s-4,3.1-6.3,4.1c-1.9.8-4,1.3-6.1,1.6-2.9.3-5.9,0-8.7-.9-2.4-.8-4.6-2-6.6-3.5-.9-.7-1.1-.9-1.9-1.7l-80.1-80.1-80.1,80.1c-.8.8-1,1-1.9,1.7-2,1.6-4.2,2.8-6.6,3.5-2.8.9-5.8,1.2-8.7.9-2.1-.2-4.1-.7-6.1-1.6-1.9-.8-3.7-1.9-5.3-3.3-1.9-1.6-3.6-3.6-4.8-5.7-1.2-2.2-2.1-4.6-2.5-7.1-.4-2.5-.4-5,.1-7.5.6-2.9,1.7-5.6,3.4-8,.5-.7,1-1.3,1.6-2,.3-.3.6-.6.9-.9l80.1-80.1L54,82.8c-.3-.3-.6-.6-.9-.9-.6-.6-1.1-1.3-1.6-2-1.4-2.1-2.5-4.4-3.1-6.8-.5-2-.7-4.1-.6-6.2.1-2.5.7-5,1.7-7.3,1.1-2.7,2.8-5.2,5-7.2,1.5-1.4,3.3-2.6,5.1-3.6,2.3-1.1,4.7-1.8,7.2-2.1,1.1-.1,1.4,0,2.5-.1.4,0,.8,0,1.2,0,.4,0,.8,0,1.2.1.8.1,1.7.3,2.5.5,2.4.6,4.8,1.7,6.8,3.1.7.5,1.3,1,2,1.6.3.3.6.6.9.9l80.1,80.1h0Z"/>
</svg>