<?xml version="1.0" encoding="UTF-8"?>
<svg id="Ebene_1" xmlns="http://www.w3.org/2000/svg" version="1.1" viewBox="0 0 110 135">
  <!-- Generator: Adobe Illustrator 29.3.1, SVG Export Plug-In . SVG Version: 2.1.0 Build 151)  -->
  <defs>
    <style>
      .st0 {
        fill: #bd7d00;
      }
    </style>
  </defs>
  <path class="st0" d="M90.5,41.5l-10.1-10.1c-.2-.2-.4-.3-.6-.3l-.3-.3h-1.7c-.2,0-.4.1-.6.3h-.6s-.3,0-.3.3-.3.3-.3.6-.3.3-.3.6v1.4c.8,8.7-.8,15.7-2.2,19.6-11.2-11.2-16.5-25.5-16.2-43.7,0-.3,0-.6-.3-.8v-.3c0-.3-.3-.6-.6-.8,0,0-.3,0-.3-.3-.2-.2-.4-.3-.6-.3-.3,0-.6,0-.6-.3h-.3c-.3,0-.8,0-1.1.3s-.6.3-.8.6L19.4,41.5C-.5,61.3-.5,93.5,19.4,113.1c9.5,9.5,22.4,14.8,35.8,14.8s26.3-5.3,35.8-14.8c19.3-19.6,19.3-51.8-.6-71.7h0ZM86.6,109.2c-8.4,8.4-19.9,13.2-31.9,13.2s-23.5-4.8-31.9-13.2c-17.6-17.6-17.6-46.2,0-63.8l29.1-29.1c1.1,18.2,8.1,33,21,44,.6.6,1.1.6,2,.6h.6c.8-.3,1.7-.6,2-1.4.3-.3,3.9-7.8,4.5-19l5,5c17.4,17.6,17.4,46.2-.3,63.8h0Z"/>
</svg>