<?xml version="1.0" encoding="UTF-8"?>
<svg id="Ebene_1" xmlns="http://www.w3.org/2000/svg" version="1.1" viewBox="0 0 110 135">
  <!-- Generator: Adobe Illustrator 29.3.1, SVG Export Plug-In . SVG Version: 2.1.0 Build 151)  -->
  <defs>
    <style>
      .st0 {
        fill: #3200ff;
      }
    </style>
  </defs>
  <path class="st0" d="M71.8,50.6c0,.2,0,.4,0,.6.1,2.1,1,4.1,2.6,5.7,1.6,1.6,3.6,2.5,5.7,2.6.2,0,.3,0,.5,0,2,0,3.8-.7,5.2-2.1.8-.8.8-2.2,0-3-.8-.8-2.2-.8-3,0-.6.6-1.5,1-2.5.9-1.1,0-2.1-.6-3-1.4-.8-.8-1.3-1.9-1.4-3,0-1,.3-1.9.9-2.5.4-.4.6-1,.6-1.5s-.2-1.1-.6-1.5c-.8-.8-2.2-.8-3,0-1.3,1.3-3.8,1.1-5.5-.5s-1.9-4.1-.5-5.5c.8-.8.8-2.2,0-3-.8-.8-2.2-.8-3,0-3,3-2.8,8.2.5,11.5,1.7,1.7,4,2.6,6.3,2.6h0Z"/>
  <path class="st0" d="M90.8,37.6c1.6-1.6,1.6-4.3,0-6-1.6-1.7-4.3-1.6-6,0-1.6,1.6-1.6,4.3,0,6,1.6,1.6,4.3,1.6,6,0Z"/>
  <path class="st0" d="M10.1,105.3l4.4,2.3.3.3,2.3,4.4c1.7,3.3,5.1,5.4,8.5,5.4s.4,0,.7,0c3.1-.3,5.5-2.2,6.4-5.1l6.2-19.5c1.2.1,2.5.2,3.7.2,7.2,0,15.7-1.8,24-5.4l2.7,5.2c1.7,3.3,5.1,5.4,8.5,5.4s.4,0,.7,0c3.1-.3,5.5-2.2,6.4-5.1l8.9-27.9c9.9-14.2,12.7-30.3,10.8-40.9-.6-3.5-3.2-6.1-6.7-6.7-10.6-1.9-26.6.9-40.9,10.8h0s-27.9,8.9-27.9,8.9c-2.9.9-4.8,3.3-5.1,6.4-.3,3.7,1.8,7.4,5.4,9.2l5.2,2.7c-4.3,9.8-5.9,19.7-5.2,27.7l-19.6,6.2c-2.9.9-4.8,3.3-5.1,6.4-.4,3.7,1.8,7.4,5.3,9.2h0ZM80.9,92.1c-.6,1.7-1.9,2.1-2.7,2.1-1.6.2-3.9-.7-5.1-3.1l-2.7-5.1c5.6-2.9,11.1-6.8,16-11.7l.3-.3-5.7,18ZM31.4,49.3c-2.3-1.2-3.3-3.4-3.1-5.1,0-.8.4-2.2,2.1-2.7l18-5.8-.3.3c-4.9,4.9-8.7,10.3-11.7,16l-5.1-2.6ZM51.1,39c12.5-12.5,28.2-17.6,39.9-17.6s4.3.2,6.1.5c1.8.3,3,1.5,3.3,3.3,2.2,11.8-2.2,31.3-17,46.1-14.5,14.5-35.3,19.5-47.5,17-.9-.2-1.6-.9-1.8-1.8-2.6-12.3,2.5-33.1,17-47.6h0ZM9,96.5c0-.8.4-2.2,2.1-2.7l18.9-6.1c.6,2.3,2.4,4.1,4.7,4.7l-6.1,18.9c-.6,1.7-1.9,2.1-2.7,2.1-1.6.1-3.9-.7-5.1-3.1l-2.4-4.7c-.1-.2-.2-.4-.4-.5l-.8-.8c-.1-.1-.3-.3-.5-.4l-4.7-2.4c-2.2-1.1-3.1-3.3-3-5h0Z"/>
</svg>