<?xml version="1.0" encoding="UTF-8"?>
<svg id="Ebene_1" xmlns="http://www.w3.org/2000/svg" version="1.1" viewBox="0 0 110 135">
  <!-- Generator: Adobe Illustrator 29.3.1, SVG Export Plug-In . SVG Version: 2.1.0 Build 151)  -->
  <defs>
    <style>
      .st0 {
        fill: #bd7d00;
      }
    </style>
  </defs>
  <path class="st0" d="M16.3,88c-4.5,8.9-2.4,19.3,2.1,24.9,3.4,4.2,8,5.9,12.6,4.6,15.7-4.2,32.2-4.2,47.9,0,1,.3,2,.4,3,.4,3.6,0,7-1.7,9.7-5,4.5-5.6,6.7-16,2.1-24.9-10.2-19.9-23.9-30.9-38.7-30.9s-28.5,10.9-38.7,30.9h0ZM55,61.6c13,0,25.3,10.1,34.7,28.4,3.7,7.2,1.9,15.7-1.6,20-1.3,1.6-4.1,4.2-8,3.1-8.2-2.2-16.6-3.3-25.1-3.3s-16.9,1.1-25.1,3.3c-3.9,1.1-6.7-1.5-8-3.1-3.5-4.4-5.3-12.9-1.6-20,9.5-18.3,21.8-28.4,34.8-28.4h0Z"/>
  <path class="st0" d="M88.1,67.4c1.4.8,2.9,1.2,4.5,1.2s3.2-.4,4.8-1.1c3.1-1.4,5.8-4,7.7-7.3,4.2-7.2,3.2-15.3-2.3-18.4-2.7-1.5-6-1.6-9.4,0-3.1,1.4-5.8,4-7.7,7.3-1.9,3.3-2.8,7-2.5,10.3.3,3.6,2,6.5,4.7,8.1ZM89.6,51.3c1.5-2.5,3.5-4.5,5.7-5.5,1-.5,2-.7,3-.7s1.6.2,2.3.6c3.2,1.8,3.4,7.5.6,12.3-1.5,2.5-3.5,4.5-5.7,5.5-2,.9-3.9.9-5.3.1-1.4-.8-2.3-2.5-2.5-4.6-.2-2.5.5-5.2,1.9-7.7h0Z"/>
  <path class="st0" d="M67.7,52.1c.4,0,.9,0,1.3,0,5.7,0,11.2-6.5,12.8-15.7.8-4.4.5-8.9-.8-12.4-1.4-4-4-6.4-7.2-7-6.2-1.1-12.4,5.7-14.1,15.5-.8,4.4-.5,8.9.8,12.4,1.4,4,4,6.5,7.2,7h0ZM64.1,33.5c1.3-7.3,5.3-11.9,8.4-11.9s.3,0,.5,0c1.5.3,2.9,1.8,3.7,4.1,1,2.8,1.2,6.5.6,10.1-1.4,7.7-5.8,12.5-8.9,11.9-1.5-.3-2.9-1.8-3.7-4.1-1-2.8-1.3-6.5-.6-10.1h0Z"/>
  <path class="st0" d="M12.6,67.5c1.6.8,3.3,1.1,4.8,1.1s3.2-.4,4.5-1.2c2.7-1.5,4.4-4.4,4.7-8.1.3-3.4-.6-7.1-2.5-10.3-1.9-3.3-4.6-5.9-7.7-7.3-3.3-1.5-6.7-1.5-9.4,0-5.4,3.1-6.4,11.2-2.3,18.4,1.9,3.3,4.7,5.9,7.7,7.3ZM9.3,45.7c1.4-.8,3.3-.8,5.3.1,2.2,1,4.3,3,5.7,5.5s2.1,5.2,1.9,7.7c-.2,2.2-1.1,3.8-2.5,4.6-1.4.8-3.3.8-5.3-.1-2.2-1-4.3-3-5.7-5.5-2.8-4.8-2.5-10.5.6-12.3h0Z"/>
  <path class="st0" d="M33.2,48c2.3,2.8,5,4.3,7.8,4.3s.9,0,1.3,0c3.2-.6,5.7-3,7.2-7,1.3-3.5,1.5-7.9.8-12.4-.8-4.4-2.5-8.5-5-11.4-2.7-3.2-5.9-4.7-9.1-4.1-3.2.6-5.7,3-7.2,7-1.3,3.5-1.5,7.9-.8,12.4.8,4.4,2.6,8.4,5,11.3h0ZM33.2,25.7c.9-2.4,2.2-3.9,3.7-4.1.2,0,.3,0,.5,0,1.4,0,3,.9,4.4,2.7,1.9,2.3,3.4,5.7,4,9.3.7,3.7.4,7.3-.6,10.1-.9,2.4-2.2,3.9-3.7,4.1-1.5.3-3.3-.7-4.9-2.6-1.9-2.3-3.4-5.7-4-9.3-.6-3.6-.5-7.4.6-10.2h0Z"/>
</svg>