<?xml version="1.0" encoding="UTF-8"?>
<svg id="Ebene_1" xmlns="http://www.w3.org/2000/svg" version="1.1" viewBox="0 0 110 135">
  <!-- Generator: Adobe Illustrator 29.3.1, SVG Export Plug-In . SVG Version: 2.1.0 Build 151)  -->
  <defs>
    <style>
      .st0 {
        fill: #30f;
      }
    </style>
  </defs>
  <path class="st0" d="M38.4,51.7c0,5.5-8.2,5.5-8.2,0s8.2-5.5,8.2,0"/>
  <path class="st0" d="M71.5,26.9c-5.8,0-11.3,2.3-15.4,6.4-.8.8-.8,2.1,0,2.9.8.8,2.1.8,2.9,0,3.4-3.4,7.8-5.2,12.5-5.2s9.2,1.8,12.5,5.2,5.2,7.8,5.2,12.5.9,2.1,2.1,2.1,2.1-.9,2.1-2.1c0-5.8-2.3-11.3-6.4-15.4-4.1-4.1-9.6-6.4-15.4-6.4h0Z"/>
  <path class="st0" d="M102.9,35.4c-.8-2-1.9-4-3.1-5.8-1.2-1.8-2.6-3.5-4.2-5-1.5-1.5-3.2-3-5-4.2-1.8-1.2-3.8-2.3-5.8-3.1-2.1-.9-4.2-1.5-6.4-2-4.5-.9-9.3-.9-13.7,0-2.2.5-4.4,1.1-6.4,2-2,.8-4,1.9-5.8,3.1-1.6,1.1-3.1,2.3-4.4,3.6h-10.2c-8.5,0-16.5,3.3-22.5,9.3-6,6-9.3,14-9.3,22.5v52.8c0,5.1,4.2,9.3,9.5,9.3s9.3-4.2,9.3-9.3v-22.5c0-2.9,2.3-5.2,5.2-5.2h7.3c5,0,9.7-1.8,13.4-5.1.6.4,1.1.8,1.7,1.2,1.8,1.2,3.8,2.3,5.8,3.1,2.1.9,4.2,1.5,6.4,2,4.5.9,9.2.9,13.7,0,2.2-.5,4.4-1.1,6.4-2,2-.8,4-1.9,5.8-3.1,1.8-1.2,3.5-2.6,5-4.2,1.5-1.5,3-3.2,4.2-5,1.2-1.8,2.3-3.8,3.1-5.8.9-2.1,1.5-4.2,2-6.4.5-2.3.7-4.6.7-6.9s-.2-4.6-.7-6.9c-.5-2.2-1.1-4.4-2-6.4h0ZM38.3,76.5c-4,0-7.2-1.7-8.4-3.5,1.1.2,2.2.3,3.3.3,4.4,0,8.6-1.8,11.5-4.9.1-.2.3-.2.5,0h0c.8.6,2.1,1.7,2.1,3.1,0,2.3-3.9,5-9,5h0ZM100.9,54.7c-.4,1.9-1,3.8-1.8,5.7-.8,1.8-1.7,3.5-2.8,5.1-1.1,1.6-2.3,3.1-3.7,4.4-1.4,1.4-2.8,2.6-4.4,3.7-1.6,1.1-3.3,2-5.1,2.8-1.8.8-3.7,1.4-5.7,1.8-4,.8-8.1.8-12.1,0-1.9-.4-3.8-1-5.7-1.8-1.8-.8-3.5-1.7-5.1-2.8-1-.7-1.9-1.4-2.8-2.1-.2-.2-.4-.2-.5-.3,0-2.3-1.5-4.5-3.9-6.2-.1,0-.2-.2-.4-.2-1.8-1-4-.7-5.5.8-2.1,2.3-5.2,3.6-8.5,3.6s-3.3-.3-4.8-1c-.5-.2-1.1-.2-1.7,0-.5.2-.9.7-1.1,1.2-.2.7-.3,1.3-.3,2,0,2.1,1.1,4,2.8,5.5-4.2.9-7.4,4.6-7.4,9.1v22.5c0,2.9-2.3,5.2-5.4,5.2s-5.2-2.3-5.2-5.2v-52.8c0-7.4,2.9-14.4,8.1-19.6,5.2-5.2,12.2-8.1,19.6-8.1h11c.5,0,1.1-.2,1.5-.6,1.4-1.4,2.8-2.6,4.4-3.7,1.6-1.1,3.3-2,5.1-2.8,1.8-.8,3.7-1.4,5.7-1.8,4-.8,8.2-.8,12.1,0,1.9.4,3.8,1,5.7,1.8,1.8.8,3.5,1.7,5.1,2.8,1.6,1.1,3.1,2.3,4.4,3.7,1.4,1.4,2.6,2.8,3.7,4.4,1.1,1.6,2,3.3,2.8,5.1.8,1.8,1.4,3.7,1.8,5.7.4,2,.6,4,.6,6s-.2,4-.6,6h0Z"/>
</svg>