<?xml version="1.0" encoding="UTF-8"?>
<svg id="Ebene_1" xmlns="http://www.w3.org/2000/svg" version="1.1" viewBox="0 0 110 135">
  <!-- Generator: Adobe Illustrator 29.3.1, SVG Export Plug-In . SVG Version: 2.1.0 Build 151)  -->
  <defs>
    <style>
      .st0 {
        fill: #3200ff;
      }
    </style>
  </defs>
  <path class="st0" d="M45.8,66.9c-1.6,0-2.9,1.3-2.9,2.9s1.3,2.9,2.9,2.9,2.9-1.3,2.9-2.9-1.3-2.9-2.9-2.9Z"/>
  <path class="st0" d="M67.3,66.9c-1.6,0-2.9,1.3-2.9,2.9s1.3,2.9,2.9,2.9,2.9-1.3,2.9-2.9-1.3-2.9-2.9-2.9Z"/>
  <path class="st0" d="M91.1,57.3c0-.1,0-.3,0-.4v-13.6c.1,0,.1-4,.1-4,0-1.9-1.1-3.6-2.8-4.5-1.7-.8-3.7-.5-5.2.7l-10.3,8.7c-5.6-2.6-11.1-4-16.4-4s-11.3,1.5-16.3,3.9l-10.4-8.8c-1.5-1.2-3.5-1.5-5.2-.7-1.7.8-2.8,2.5-2.8,4.5v17.6c0,.2,0,.3,0,.5-5.2,5.1-8.4,9.5-8.7,9.9-.4.6-.4,1.3,0,1.9.6.9,15.4,21.2,35.3,25.9h0c1.9,2.5,4.9,4,8.1,4h.1c3.2,0,6.1-1.5,8-4.1.1,0,.3,0,.4,0,19.8-4.9,34.3-25,34.9-25.8.4-.6.4-1.3,0-1.9-.1-.2-3.4-4.7-8.9-10h0ZM85.3,38.1c.7-.6,1.6-.3,1.8-.2.2,0,1,.5,1,1.5v15.1c-.3-.2-.5-.3-.7-.5-3.7-3.2-7.5-5.9-11.3-8l9.2-7.8ZM25.1,39.2c0-1,.7-1.4,1-1.5.2,0,1-.4,1.8.2l9.3,7.9c-4.5,2.5-8.6,5.6-12.1,8.6v-15.2h0ZM47.7,88.6c-.5.9-.7,1.8-.6,2.8-13.1-4-23.8-15.1-28.6-20.7,12.8.8,24.1,10.3,30.2,16.5-.4.4-.7.9-1,1.4h0ZM62.4,92.7c-1.3,2-3.4,3.1-5.8,3.1h0c-2.3,0-4.4-1.1-5.8-3-.6-.9-.7-1.9-.2-2.8.5-1,1.8-2.1,3.8-2.1h4.2s0,0,0,0c2,0,3.3,1.1,3.9,2,.3.5.6,1.6-.2,2.8h0ZM66.1,91.4c0-1-.2-2-.7-2.9-.3-.5-.6-.9-.9-1.3,6.3-6.4,17.5-15.7,30.2-16.5-4.7,5.6-15.5,16.7-28.5,20.7h0ZM61.8,85.3c-1-.4-2-.6-3.1-.6h-4.3c-1.1,0-2.1.2-3,.6-7.9-8.2-20.1-17.7-34.2-18,4.7-5.9,20.7-23.7,39.3-23.7s22,6.9,28.7,12.7c5,4.3,8.7,8.6,10.6,11-14.6.3-27.4,10.9-34.1,17.9h0Z"/>
</svg>