<?xml version="1.0" encoding="UTF-8"?>
<svg id="Ebene_1" xmlns="http://www.w3.org/2000/svg" version="1.1" viewBox="0 0 110 135">
  <!-- Generator: Adobe Illustrator 29.3.1, SVG Export Plug-In . SVG Version: 2.1.0 Build 151)  -->
  <defs>
    <style>
      .st0 {
        fill: #bd7d00;
      }
    </style>
  </defs>
  <path class="st0" d="M45.5,60c0,3.4-5.1,3.4-5.1,0s5.1-3.4,5.1,0"/>
  <path class="st0" d="M66.2,60c0,3.4-5.1,3.4-5.1,0s5.1-3.4,5.1,0"/>
  <path class="st0" d="M48.2,78.8c.3.3.6.4.9.4s.6-.1.9-.4l3.9-3.9,3.8,3.9c.5.5,1.3.5,1.8,0,.5-.5.5-1.3,0-1.8l-4.4-4.4c1.6-.4,3.1-1.3,4.1-2.7.8-1.2.9-2.7.2-4-.8-1.5-2.4-2.4-4.3-2.4h-2.6c-1.9,0-3.5,1-4.3,2.5-.7,1.3-.6,2.8.3,4,1,1.4,2.4,2.3,4,2.6l-4.4,4.4c-.5.5-.5,1.3,0,1.8h0ZM50.6,68.5c-.4-.6-.3-1.1-.1-1.4.4-.7,1.2-1.1,2.1-1.1h2.5s0,0,0,0c.9,0,1.7.4,2.1,1.1.2.3.3.8,0,1.4-.7,1.1-1.9,1.7-3.2,1.7-1.3,0-2.5-.6-3.3-1.7h0Z"/>
  <path class="st0" d="M18.2,73.6c0,.7.6,1.3,1.3,1.3h6.3c2.3,10.6,12,18.6,23.6,18.6h8.8c11.6,0,21.3-8,23.6-18.6h6.5c.7,0,1.3-.6,1.3-1.3s-.6-1.3-1.3-1.3h-6.1c0-.8.1-1.6.1-2.4v-1h6c.7,0,1.3-.6,1.3-1.3s-.6-1.3-1.3-1.3h-5.9l.2-18.5v-12.5c0-1.7-1-3.2-2.5-3.9s-3.3-.5-4.6.6l-8.9,7.5c-3.5-2.3-8-3.6-12.8-3.6s-9.2,1.3-12.8,3.6l-8.9-7.5c-1.3-1.1-3-1.3-4.6-.6-1.5.7-2.5,2.2-2.5,3.9v31h-5.8c-.7,0-1.3.6-1.3,1.3s.6,1.3,1.3,1.3h5.7v1c0,.8,0,1.6.1,2.4h-5.9c-.7,0-1.2.5-1.2,1.3h0ZM27.7,69.9v-1h5.9c.7,0,1.3-.6,1.3-1.3s-.6-1.3-1.3-1.3h-5.9v-31c0-.7.4-1.3,1-1.6.2-.1.5-.2.7-.2.4,0,.8.1,1.1.4l9.6,8.1c.4.4,1.1.4,1.6,0,3.2-2.4,7.5-3.7,12.1-3.7s8.9,1.3,12.1,3.7c.5.4,1.1.3,1.6,0l9.6-8.1c.5-.4,1.2-.5,1.9-.3s1,.9,1,1.6v12.5l-.2,18.6h-5.7c-.7,0-1.3.6-1.3,1.3s.6,1.3,1.3,1.3h5.7v1c0,.8,0,1.6-.2,2.4h-5.5c-.7,0-1.3.6-1.3,1.3s.6,1.3,1.3,1.3h5.1c-2.2,9.2-10.7,16-20.9,16h-8.8c-10.2,0-18.7-6.9-21-16h5.3c.7,0,1.3-.6,1.3-1.3s-.6-1.3-1.3-1.3h-5.8c0-.8-.1-1.5-.1-2.3h0Z"/>
</svg>