<?xml version="1.0" encoding="UTF-8"?>
<svg id="Ebene_1" xmlns="http://www.w3.org/2000/svg" xmlns:xlink="http://www.w3.org/1999/xlink" version="1.1" viewBox="0 0 328 410">
  <!-- Generator: Adobe Illustrator 29.3.1, SVG Export Plug-In . SVG Version: 2.1.0 Build 151)  -->
  <defs>
    <style>
      .st0 {
        fill: none;
        fill-rule: evenodd;
        stroke: #3200ff;
        stroke-miterlimit: 10;
        stroke-width: 10px;
      }
    </style>
  </defs>
  <path class="st0" d="M106.4,216.5L270.4,52.5c.3-.3.6-.6,1-.9.7-.6,1.4-1.1,2.1-1.7,2.9-2.1,6.2-3.5,9.7-4.2,1.3-.3,2.6-.4,4-.4.4,0,.9,0,1.3,0,.4,0,.9,0,1.3,0,1.2.1,1.5.1,2.6.4,2.6.5,5.1,1.4,7.5,2.7,1.9,1.1,3.7,2.4,5.3,4,2.5,2.5,4.5,5.6,5.7,8.9,1.1,2.9,1.6,6,1.5,9.1,0,2.2-.4,4.4-1.1,6.5-.8,2.5-2,5-3.5,7.1-.5.7-1.1,1.4-1.7,2.1-.3.3-.6.6-.9,1l-184,184h0c-.3.3-.5.5-.8.8,0,0,0,0-.1.1h0c0,0,0,.1,0,.1h0c-.1.2-.3.3-.4.4h0s0,0,0,0h0c0,0-.1.2-.1.2h0c0,0,0,0,0,0h0s0,0,0,0h0s0,0,0,0h0c0,0,0,0,0,0,0,0-.1,0-.2.1h0s0,0,0,0h0s0,.1,0,.1h0s0,0,0,0c0,0-.1.1-.2.2h0s0,0,0,0h0c0,0,0,0,0,0h0s0,0,0,0h0s-.1.1-.1.1h0s0,0,0,0c0,0-.1,0-.2.1h0s0,0,0,0h0s-.1.1-.1.1h0s0,0,0,0h0s-.1,0-.1,0h0c0,0,0,0,0,0h0c-1.8,1.1-3.7,2-5.8,2.7h0s0,0,0,0h-.2c0,0,0,0,0,0h0s0,0,0,0h-.1s0,0,0,0h0s0,0,0,0h0s-.1,0-.1,0h0s0,0,0,0h0s-.1,0-.1,0h0s0,0,0,0h0s-.1,0-.1,0h-.1s0,0,0,0h0s0,0,0,0h-.1s0,0,0,0h0s0,0,0,0h-.1s0,0,0,0h0s0,0,0,0h-.1s-.1,0-.1,0h0s0,0,0,0h0s-.1,0-.1,0h0s0,0,0,0h0s-.2,0-.2,0h0s0,0,0,0c-.5.1-1.1.2-1.6.3h-.1s-.1,0-.1,0h0c-.6,0-1.3.1-1.9.1h-.2s0,0,0,0h-.2s-.1,0-.1,0h-.1s-.1,0-.1,0h-.3s0,0,0,0h0c-.4,0-.7,0-1.1,0h0s0,0,0,0h-.2s0,0,0,0h0s0,0,0,0h-.1s0,0,0,0h0s0,0,0,0h0s-.1,0-.1,0h0s0,0,0,0c0,0-.2,0-.3,0h0s0,0,0,0h-.1s-.1,0-.1,0h0s0,0,0,0c0,0-.2,0-.3,0h0s0,0,0,0h-.1s-.1,0-.1,0h0s0,0,0,0c-1.7-.2-3.3-.7-4.9-1.2-.5-.2-1-.4-1.5-.6h0s0,0,0,0h0s0,0,0,0c-.5-.2-1.1-.5-1.6-.8-1.7-.9-3.3-2-4.7-3.3h0s0,0,0,0h-.1c0-.1-.1-.2-.1-.2h0s0,0,0,0c0,0-.2-.1-.2-.2h0s0,0,0,0h0c0,0,0-.2,0-.2h0s0,0,0,0c0,0-.1-.1-.2-.2h0s0,0,0,0h-.1c0-.1,0-.2,0-.2h0c0,0-.1-.2-.2-.2h0s0,0,0,0h-.1c0-.1,0-.1,0-.1h0s0-.1,0-.1h0c0,0,0,0,0,0h0c0,0,0-.1,0-.1h0s0,0,0,0h0c0,0,0-.2,0-.2h0s0,0,0,0c-.2-.2-.4-.4-.5-.6,0,0-.1-.1-.2-.2-.1-.1-.2-.3-.3-.4h0c0,0-61.3-81.9-61.3-81.9-.2-.2-.3-.5-.5-.7-.5-.7-1-1.5-1.4-2.3-1.1-2.1-2-4.3-2.5-6.6s-.7-4.7-.5-7c.2-2.9,1-5.8,2.3-8.5,1.3-2.7,3-5.1,5.1-7.2,1.7-1.6,3.6-3,5.7-4.1,2.4-1.2,4.9-2.1,7.5-2.5.9-.1,1.8-.2,2.6-.3.3,0,.6,0,.9,0,.3,0,.6,0,.9,0,.8,0,1,0,1.8.1,1.2.1,2.3.3,3.5.6,4,1,7.8,3,10.8,5.8.7.6,1.3,1.2,1.8,1.9.5.6.6.8,1.1,1.4l44.4,59.1Z"/>
</svg>