<?xml version="1.0" encoding="UTF-8"?>
<svg id="Ebene_1" xmlns="http://www.w3.org/2000/svg" xmlns:xlink="http://www.w3.org/1999/xlink" version="1.1" viewBox="0 0 2000 2500">
  <!-- Generator: Adobe Illustrator 29.3.1, SVG Export Plug-In . SVG Version: 2.1.0 Build 151)  -->
  <defs>
    <style>
      .st0 {
        fill: #30f;
      }
    </style>
  </defs>
  <path class="st0" d="M1894.1,727.9c-5.7-53.7-19.7-104.7-41.6-151.5-23.1-49.4-54.5-92.9-93.3-129.2-41.4-38.8-90.7-68.9-146.6-89.5-59.6-22-126.8-33.1-199.7-33.1s-140.1,11.1-199.7,33.1c-55.9,20.6-105.2,50.7-146.6,89.5-38.8,36.3-70.1,79.8-93.3,129.2-21.9,46.8-35.9,97.8-41.6,151.5-3,28.1-3.6,56.4-2,84.7-35.2,19.6-70.9,38.8-105.6,57.5-79.6,42.9-161.9,87.2-238.2,135.7-86,54.7-155.8,109.4-213.2,167.1-69.1,69.5-122.5,145-163.1,230.8-43.4,91.6-71.4,192.7-85.4,308.5-.4,1.2-.7,2.4-.9,3.6-.7,4.6-1,9.2-1,13.9v.2h0c0,47.6,34.8,88.3,81.5,95.9.8.2,1.7.4,2.5.5,100.9,14.3,196.3,21.4,285.4,21.4s89.7-1.9,132-5.6c76.4,20.1,153.9,30.2,231.7,30.2s14.5,0,21.7-.3v157.7c0,1.3.1,2.5.3,3.7.2,33.5,27.6,60.8,61.2,60.8h102.5c33.8,0,61.2-27.5,61.2-61.2s0-1,0-1.4c.1-1.5.1-3.1,0-4.7-3.4-26.4-10-45.9-20.2-59.6-5.5-7.4-12.1-13-19.5-16.7v-102.1c18-4.2,35.8-8.9,53.5-14.1v198.6c0,1.8.3,3.6.7,5.3,2.7,31.3,29,55.9,61,55.9h102.5c33.8,0,61.2-27.5,61.2-61.2s0-1,0-1.4c.1-1.5.1-3.1,0-4.7-3.4-26.4-10-45.9-20.2-59.6-5.5-7.4-12.2-13.1-19.6-16.7v-193.7c8.9-4.9,17.8-10,26.7-15.2,245.2-144.7,422.2-392.6,498.7-698.1,26.4-45,45.6-94.4,57.3-147,12.4-55.8,15.6-112.5,9.7-168.6ZM1413,367.7c195.7,0,316.5,83.1,381.1,190.5-32.3-22.9-70.2-38.3-112.8-45.9-103.5-18.4-217.7,13.7-282.6,77.2-61.6-61-163.9-91.4-258-74.6-41,7.3-79.1,23.5-110.9,47,64-109.2,185.4-194.2,383.3-194.2ZM214.7,1784.1c-.8-.2-1.5-.3-2.3-.5-26.4-3.5-46.4-26.1-46.9-52.6,53.4-485.8,357.4-649.6,679.2-823,29.6-15.9,59.9-32.3,90-48.9,1.9,12.5,4.1,25,6.9,37.4,12.5,56.4,33.7,109.1,63.1,156.6,30.8,49.8,69.3,92,114.5,125.2,43.1,31.7,91.4,54.7,143.9,68.4-25.7,177.6-100,314.7-221,407.5-224,171.7-573.1,165.5-827.4,129.8ZM1041.3,1988.5s0,0,.1,0,0,0,.1,0c4.9,0,13.6,11,17.9,41.1,0,.6,0,1.3,0,1.9,0,.5,0,1,0,1.4,0,10-8.2,18.2-18.2,18.2h-102.5c-10,0-18.2-8.1-18.2-18.2s0-1,0-1.5c.2-2.1,0-4.2-.4-6.1v-155.3c21.7-1.6,43.3-3.9,65-7,11.5-1.7,23-3.5,34.5-5.6v109.6c0,11.9,9.6,21.5,21.5,21.5ZM1280.2,1988.5c0,0,.1,0,.2,0s.1,0,.2,0c4.9,0,13.6,11,17.9,41.1,0,.6,0,1.3,0,1.9,0,.5,0,1,0,1.4,0,10-8.2,18.2-18.2,18.2h-102.5c-10,0-18.2-8.1-18.2-18.2s0-1,0-1.4c.2-2.3,0-4.6-.5-6.7v-204.4c33.8-11.8,66.9-25.7,99.5-41.4v188c0,11.9,9.6,21.5,21.5,21.5ZM1534.4,1209.4c-11.6,2.5-19,13.9-16.5,25.5,2.2,10.1,11.1,17,21,17s3-.2,4.5-.5c60-12.9,114.9-37.4,163.3-73,16.8-12.4,32.7-26,47.6-40.7-84.8,246.1-241.1,444.9-447.8,566.9-56,33.1-114.5,59.7-174.4,79.7-.9.2-1.7.5-2.5.8-30.1,9.9-60.5,18.2-91.2,24.8-1.1.2-2.3.4-3.4.7-44.5,9.4-89.6,15.3-134.9,17.6-.4,0-.9,0-1.3,0-1.1,0-2.2.1-3.3.3-46.9,2.1-93.9.5-140.8-5.1,124.5-25.4,229.7-70.6,313.6-134.9,134.9-103.4,215.7-256.6,240.1-455.4,0,0,0,0,0-.1,0-.4,0-.9,0-1.3,0-.3,0-.6,0-.8,0-.4,0-.9,0-1.3,0-.3,0-.6,0-.9,0-.4,0-.8-.1-1.2,0-.3,0-.6-.1-1,0-.3-.1-.6-.2-1,0-.4-.2-.7-.3-1.1,0-.3-.2-.5-.3-.8-.1-.4-.3-.8-.4-1.2,0-.3-.2-.5-.3-.7-.2-.4-.3-.8-.5-1.1-.1-.3-.3-.5-.4-.8-.2-.3-.4-.7-.6-1-.2-.3-.4-.6-.6-.8-.2-.3-.4-.6-.6-.8-.2-.3-.5-.6-.8-.9-.2-.2-.4-.5-.6-.7-.3-.3-.6-.6-.9-.9-.2-.2-.4-.4-.6-.6-.3-.3-.6-.5-1-.8-.2-.2-.4-.4-.7-.5-.3-.2-.6-.4-.9-.6-.3-.2-.6-.4-.8-.5-.3-.2-.6-.3-.8-.4-.3-.2-.7-.4-1.1-.5-.3-.1-.5-.2-.8-.3-.4-.2-.8-.3-1.2-.5-.3,0-.5-.1-.8-.2-.4-.1-.9-.3-1.3-.3,0,0,0,0-.1,0-233.4-50-337.4-283-316.9-476.9.9-8.7,2.1-17.5,3.6-26.3,27.6-81.5,87.9-134.3,169.9-149,88.4-15.8,184.5,16.2,233.6,77.7,0,0,0,0,.1.1.3.3.6.6.9,1,.2.2.4.5.6.7.2.2.5.4.7.6.3.3.6.6,1,.9,0,0,0,0,.1.1.2.1.3.2.5.3.4.3.8.6,1.2.8.2.2.5.3.7.4.4.2.7.4,1.1.6.3.2.6.3.9.4.3.1.6.3,1,.4.3.1.7.3,1.1.4.3,0,.6.2.9.3.4.1.8.2,1.2.3.3,0,.6.1.8.2.4,0,.8.1,1.2.2.3,0,.6,0,.9.1.4,0,.7,0,1.1,0,.3,0,.7,0,1,0s.7,0,1,0c.4,0,.7,0,1.1,0,.3,0,.6,0,.9-.1.4,0,.8-.1,1.2-.2.3,0,.6-.1.9-.2.4,0,.8-.2,1.1-.3.3,0,.6-.2.9-.3.3-.1.7-.2,1-.4.3-.1.7-.3,1-.4.3-.1.6-.3.9-.4.4-.2.7-.4,1.1-.6.2-.1.5-.3.7-.4.4-.3.8-.6,1.2-.8.1-.1.3-.2.5-.3,0,0,0,0,.1-.1.3-.3.7-.6,1-.9.2-.2.5-.4.7-.6s.4-.5.6-.7c.3-.3.6-.6.9-1,0,0,0,0,.1-.1,50.3-63,161.3-97.5,258.3-80.2,49.3,8.8,137.1,39.3,172.8,144.5,2,11.1,3.6,22.2,4.8,33.2,20.5,193.8-83.5,426.8-316.9,476.9Z"/>
  <path class="st0" d="M1472.8,790.8c-19.1-25.9-43.4-40.7-66.8-40.7s-47.7,14.8-66.8,40.7c-16.5,22.4-26.4,49.1-26.7,71.7-2.9,39.7,19.7,101.7,48.6,133.2,14.2,15.4,29.2,23.2,44.8,23.2s30.6-7.8,44.8-23.2c29-31.5,51.5-93.4,48.6-133.2-.3-22.6-10.2-49.4-26.7-71.7ZM1419.2,966.5c-6.8,7.4-11.6,9.3-13.1,9.3s-6.4-2-13.1-9.3c-22.6-24.6-39.4-76.3-37.4-101.3,0-.6,0-1.2,0-1.8,0-28.9,29.7-70.3,50.4-70.3s50.4,41.4,50.4,70.3,0,1.2,0,1.8c2.1,25.1-14.8,76.7-37.4,101.3Z"/>
  <path class="st0" d="M1264.6,753.5c-1.8-26.2-24.5-46-50.7-44.2-17.2,1.2-32.5,11.6-39.8,27.3,0,0,0,0,0,0-7.3,15.7-5.6,34.1,4.6,48.1,9.3,12.8,23.8,19.6,38.6,19.6s19.4-2.9,27.8-9c6.5-4.7,11.7-11.1,15.2-18.3h0s0,0,0,0c0,0,0,0,0,0,3.4-7.3,4.9-15.3,4.3-23.3ZM1213.4,759.4c-1-1.3-1.1-3.1-.4-4.6h0c.7-1.5,2.2-2.5,3.8-2.6,2.5-.2,4.7,1.7,4.8,4.2,0,.8,0,1.5-.4,2.2h0s0,0,0,0c-.3.7-.8,1.3-1.4,1.7-2,1.5-4.9,1-6.3-1Z"/>
  <path class="st0" d="M1626.2,720.9c-9.6-8.4-21.8-12.5-34.5-11.6-17.2,1.2-32.5,11.6-39.8,27.3,0,0,0,0,0,0-7.3,15.6-5.5,34,4.6,48,7.5,10.3,18.5,17,31,19,2.5.4,5.1.6,7.6.6,9.9,0,19.6-3.1,27.8-9.1,6.5-4.7,11.7-11.1,15.1-18.3h0s0,0,0,0c3.4-7.3,4.9-15.4,4.4-23.4-.9-12.7-6.6-24.2-16.2-32.6ZM1594.2,761.2c-.8-.1-2-.6-3-1.8-1-1.3-1.1-3.1-.4-4.6,0,0,0,0,0,0,.7-1.5,2.2-2.5,3.8-2.6,1.5,0,2.6.5,3.3,1.1s1.4,1.6,1.5,3.1c0,.7,0,1.5-.4,2.2s-.8,1.3-1.4,1.7c-1.3.9-2.5.9-3.4.8Z"/>
  <path class="st0" d="M511.1,1537c12.4.8,24.7,1.2,36.8,1.2,38.7,0,75.7-4.1,110.4-12.2,46.3-10.8,88.8-28.9,126.4-53.8,77.8-51.5,133.7-130.5,166.3-234.9,3.5-11.3-2.8-23.4-14.1-26.9-11.3-3.5-23.4,2.8-26.9,14.1-58.1,186.5-198.7,282.2-396.1,269.5-11.9-.8-22.1,8.2-22.8,20.1-.7,11.9,8.3,22.1,20.1,22.8Z"/>
  <path class="st0" d="M1072,1270.2c-11.4-3.5-23.4,2.8-26.9,14.1-81.2,260.7-272.8,377.6-585.7,357.6-11.9-.8-22.1,8.2-22.8,20.1-.8,11.9,8.2,22.1,20.1,22.8,23.4,1.5,46.2,2.3,68.5,2.3,53.6,0,104-4.3,150.2-13,67.5-12.6,128.3-34.8,180.9-66,53.8-31.9,100.4-74.1,138.5-125.3,38.4-51.8,69.2-114.3,91.5-185.7,3.5-11.4-2.8-23.4-14.1-27Z"/>
</svg>