<?xml version="1.0" encoding="UTF-8"?>
<svg id="Ebene_1" xmlns="http://www.w3.org/2000/svg" version="1.1" viewBox="0 0 110 135">
  <!-- Generator: Adobe Illustrator 29.3.1, SVG Export Plug-In . SVG Version: 2.1.0 Build 151)  -->
  <defs>
    <style>
      .st0 {
        fill: #bd7d00;
      }
    </style>
  </defs>
  <path class="st0" d="M98.3,44.7c.2,0,.3,0,.5,0h0c2.7,0,4.9-2.2,4.9-4.9,0-2.7-2.2-4.9-4.9-4.9h0c-2.7,0-4.9,2.2-4.9,4.9s.7,2.9,1.9,3.8c-.6,1.6-1.2,3.2-1.6,4.8-.2.9-.4,1.9-.5,2.9-.7-.4-1.5-.7-2.3-.9-1.6-.4-3.3-.4-4.8,0,0-.7,0-1.5,0-2.2,0-1.6.1-3.1.3-4.7.2,0,.3,0,.5,0,2.6-.7,4.2-3.3,3.5-5.9-.7-2.6-3.3-4.2-5.9-3.5-1.3.3-2.3,1.1-3,2.2-.7,1.1-.9,2.4-.5,3.7.4,1.5,1.4,2.7,2.8,3.2-.2,1.7-.4,3.4-.4,5.1,0,1,0,2,.2,3.1-.3.2-.7.4-1,.6-1.8,1.2-3.3,3-4.2,5.1-3.2-13.7-14.6-27.2-34-27.2S11.7,42.3,11.1,60.8c-.3,9.3,2.5,17.3,8,23.1.3.3.5.6.8.8h0c-1.2.7-2.4,1.5-3.7,2.4-3.5,2.6-6.5,5.8-9.1,9.7-1.1,1.6-1.2,3.6-.3,5.3.9,1.7,2.6,2.7,4.5,2.7h62c11.4,0,21.6-7.7,24.7-18.6,2.1-7.4,4.1-17.9,2-26.5-.7-2.7-2-5-3.8-6.6.2-1.3.4-2.7.7-3.9.4-1.5.9-3,1.5-4.5h0ZM98.8,37.6h0c1.2,0,2.2,1,2.2,2.2,0,1.2-1,2.2-2.2,2.2h0c-1.2,0-2.2-1-2.2-2.2s1-2.2,2.2-2.2h0ZM84.2,37.6c.3-.5.8-.9,1.3-1,.2,0,.4,0,.5,0,1,0,1.9.7,2.1,1.6.3,1.2-.4,2.4-1.6,2.7-1.2.3-2.4-.4-2.7-1.6-.1-.6,0-1.2.2-1.7h0ZM21,82c-5-5.2-7.6-12.5-7.3-21.1.6-17,13-28.4,31-28.4s30.1,14.6,31.9,28.2c.2,1.3.3,2.6.3,3.9-.7,4.3-1.3,7.5-4.3,10.6-2.5,2.6-5.9,4.3-10.1,5,1.6-3.6,2.3-7.7,1.9-11.9-.9-10.1-9.1-17.3-19.3-17.3-9.5,0-16.6,6.4-16.8,15.2-.2,6.9,4.7,12.7,11.1,13.2,3.3.2,6.4-.8,8.7-3,2.2-2.1,3.4-4.9,3.4-8s-2.9-7-6.4-7.1c-1.8,0-3.5.6-4.7,1.8-1.2,1.2-1.9,2.9-1.8,4.7,0,.7.7,1.3,1.4,1.3.7,0,1.3-.7,1.3-1.4,0-1,.3-2,1-2.7.7-.7,1.7-1.1,2.7-1,2.1,0,3.9,2.1,3.9,4.4s-.9,4.5-2.6,6c-1.8,1.6-4.1,2.4-6.6,2.2-4.9-.4-8.8-5-8.6-10.4.2-7.2,6.1-12.5,14.1-12.5,8.8,0,15.8,6.2,16.6,14.8.4,4.6-.6,9-2.7,12.5,0,0,0,.1-.1.2-2.5,4-7.7,8.7-18.4,8.7s-12.6-2.1-17.3-6c0,0-1.5-1.3-2.1-1.9h0ZM97.4,60.4c1.6,6.2.9,15.1-2,25.1-2.8,9.8-11.8,16.7-22.1,16.7H11.4c-.9,0-1.7-.5-2.1-1.3-.4-.8-.4-1.7.2-2.5,2.4-3.7,5.2-6.6,8.5-9,1.4-1.1,2.8-2,4.3-2.7,5.1,3.9,11.6,6,18.3,6,11.5,0,17.4-5,20.3-9.4,5.9-.7,10.4-2.7,13.7-6.2,3.8-3.9,4.4-8,5.2-12.7.2-1.3.4-2.6.7-4,.6-2.8,1.9-4.9,3.9-6.2,1.8-1.2,4.1-1.5,6.4-1,3.2.7,5.7,3.5,6.6,7.2h0Z"/>
</svg>