<?xml version="1.0" encoding="UTF-8"?>
<svg id="Ebene_1" xmlns="http://www.w3.org/2000/svg" version="1.1" viewBox="0 0 110 135">
  <!-- Generator: Adobe Illustrator 29.3.1, SVG Export Plug-In . SVG Version: 2.1.0 Build 151)  -->
  <defs>
    <style>
      .st0 {
        fill: #30f;
        fill-rule: evenodd;
      }
    </style>
  </defs>
  <path class="st0" d="M45.2,120.3c-10.6,4.6-23.3,6.2-35.2,3.1-.9-.2-1.6-.9-1.9-1.8-.3-.9-.2-1.8.4-2.6l40.8-55.2c-2.1-.8-4-2.1-5.4-3.1-1.3,1.4-2.7,2.8-4,4.1-1,1-2.6,1.1-3.7.2-4-3.1-7.1-8.7-8.3-15.2-1.8-9.5.3-20.8,8.6-28.6,5.8-5.4,14.8-9.2,27.8-9.2s8.3.8,11.3,2.3c.4-.2.8-.2,1.2-.2,0,0,1,0,1.8-.8.8-.7,1.2-2.1,1.1-4.3,0-1.5,1.2-2.8,2.7-2.9,1.5,0,2.8,1.2,2.9,2.7.1,4.4-1.3,6.9-2.8,8.4-.4.4-.8.7-1.2,1,.9.8,1.6,1.8,2.3,2.7.2-.2.4-.3.7-.4,0,0,8.7-3.9,7-13-.3-1.5.7-3,2.2-3.3,1.5-.3,3,.7,3.2,2.2,2.5,13.4-10.2,19.1-10.2,19.1-.1,0-.2,0-.3.1,1.3,3,2.1,6.2,2.5,9.6,1.5,11-.8,22.9-.7,26.2,0,5.1,2,11.7,3.4,18.8,1.5,7.8,2.5,16.1.3,23.8-7.5,26.2-35.5,21.7-46.5,16.1h0ZM59.1,63c9.3,9.6,12.2,19.4,11.1,28.2-1.2,9.1-6.8,17.3-15,23.3-1.2.8-2.4,1.6-3.6,2.4,10.6,3.7,29.3,4.7,34.7-14.3,2-6.9,1-14.3-.4-21.2-1.5-7.5-3.5-14.5-3.5-19.9,0-3.3,2.3-14.8.8-25.5-.8-5.8-2.7-11.4-7-14.9-2.9-2.3-6.8-3.6-12-3.6-8.9,0-15.7,2-20.6,5.1-.2.8-.4,2.3,0,3.9.6,1.9,2.1,3.9,5.3,5.7,5.4,3,11,8.9,13.4,14.9,1.8,4.6,1.8,9.2-.8,13-.8,1.1-1.6,2-2.5,2.7h0ZM44.3,114.6c2.7-1.3,5.3-2.8,7.6-4.5,6.9-5.1,11.8-11.9,12.8-19.5,1-7.6-2-16-10.2-24.3L15.6,118.9c9.8,1.5,19.9-.2,28.4-4.2,0,0,.2,0,.3-.1h0ZM47.7,56.7c.8.6,1.8,1.2,2.9,1.7,2.1,1,4.7,1.5,6.5-1.1,1.6-2.3,1.3-5,.2-7.8-.3-.7-.6-1.4-1-2.2-2,2.2-5.1,5.7-8.5,9.4h0ZM52.9,42.6c-2-2.2-4.3-4.1-6.6-5.3-4.9-2.8-7-6.1-7.9-9,0-.2-.1-.5-.2-.7-5.1,6.2-6.2,14.3-4.9,21.2.8,4,2.3,7.6,4.5,10.1,1.2-1.3,2.5-2.6,3.7-3.9,0,0,0,0,0,0,4.7-5,9.1-9.9,11.2-12.3h0ZM57.2,25.9c0-1.5,1.2-2.8,2.8-2.8s2.8,1.2,2.8,2.8v5.3c0,1.5-1.2,2.8-2.8,2.8s-2.8-1.2-2.8-2.8v-5.3Z"/>
</svg>