<?xml version="1.0" encoding="UTF-8"?>
<svg id="Ebene_1" xmlns="http://www.w3.org/2000/svg" xmlns:xlink="http://www.w3.org/1999/xlink" version="1.1" viewBox="0 0 50 62.5">
  <!-- Generator: Adobe Illustrator 29.3.1, SVG Export Plug-In . SVG Version: 2.1.0 Build 151)  -->
  <defs>
    <style>
      .st0 {
        stroke: #0f0f0d;
        stroke-miterlimit: 10;
      }
    </style>
  </defs>
  <path class="st0" d="M29.2,16.3v-3.7c0-.3-.2-.5-.5-.5h-2.5v-6.6c0-.3-.2-.5-.5-.5s-.5.2-.5.5v6.6h-2.5c-.3,0-.5.2-.5.5v3.7c-6.7,1.6-11.8,7.6-11.8,14.9s6.9,15.3,15.3,15.3,15.3-6.9,15.3-15.3c0-7.2-5-13.3-11.8-14.9ZM33.8,30.6c0-2-.2-3.8-.6-5.5,3.8,1.2,6.4,3.2,6.8,5.5h-6.1ZM32.8,30.6h-6.6v-6.6c2.1,0,4.1.3,5.8.7.4,1.8.7,3.8.7,5.8ZM26.2,23.1v-6.1c2.3.3,4.4,3,5.5,6.8-1.7-.4-3.6-.6-5.5-.6ZM25.2,16.9v6.1c-2,0-3.8.2-5.5.6,1.2-3.8,3.2-6.4,5.5-6.8ZM25.2,24.1v6.6h-6.6c0-2.1.3-4.1.7-5.8,1.8-.4,3.8-.7,5.8-.7ZM17.7,30.6h-6.1c.3-2.3,3-4.4,6.8-5.5-.4,1.7-.6,3.6-.6,5.5ZM17.7,31.6c0,2,.2,3.8.6,5.5-3.8-1.2-6.4-3.2-6.8-5.5h6.1ZM18.7,31.6h6.6v6.6c-2.1,0-4.1-.3-5.8-.7-.4-1.8-.7-3.8-.7-5.8ZM25.2,39.2v6.1c-2.3-.3-4.4-3-5.5-6.8,1.7.4,3.6.6,5.5.6ZM26.2,45.4v-6.1c2,0,3.8-.2,5.5-.6-1.2,3.8-3.2,6.4-5.5,6.8ZM26.2,38.2v-6.6h6.6c0,2.1-.3,4.1-.7,5.8-1.8.4-3.8.7-5.8.7ZM33.8,31.6h6.1c-.3,2.3-3,4.4-6.8,5.5.4-1.7.6-3.6.6-5.5ZM39.6,27.7c-1.4-1.6-3.7-2.9-6.7-3.7-.8-2.9-2.1-5.3-3.7-6.7,5.1,1.3,9.1,5.3,10.4,10.4ZM23.3,13.1h5v3c-.8-.1-1.6-.2-2.5-.2s-1.7,0-2.5.2v-3h0ZM22.3,17.3c-1.6,1.4-2.9,3.7-3.7,6.7-2.9.8-5.3,2.1-6.7,3.7,1.3-5.1,5.3-9.1,10.4-10.4ZM11.9,34.6c1.4,1.6,3.7,2.9,6.7,3.7.8,2.9,2.1,5.3,3.7,6.7-5.1-1.3-9.1-5.3-10.4-10.4ZM29.2,45c1.6-1.4,2.9-3.7,3.7-6.7,2.9-.8,5.3-2.1,6.7-3.7-1.3,5.1-5.3,9.1-10.4,10.4Z"/>
  <path class="st0" d="M4.4,20.2c0,.2.3.3.4.3s.4-.1.4-.3l1.4-2.6,2.6-1.4c.2,0,.3-.3.3-.4s-.1-.4-.3-.4l-2.6-1.4-1.4-2.6c-.2-.3-.7-.3-.9,0l-1.4,2.6-2.6,1.4c-.2,0-.3.3-.3.4s0,.4.3.4l2.6,1.4,1.4,2.6ZM3.6,14.6c0,0,.2-.1.2-.2l1.1-2,1.1,2c0,0,.1.2.2.2l2,1.1-2,1.1c0,0-.2.1-.2.2l-1.1,2-1.1-2c0,0-.1-.2-.2-.2l-2-1.1,2-1.1Z"/>
  <path class="st0" d="M15.4,47l-4.4-2.4-2.4-4.4c-.2-.3-.7-.3-.9,0l-2.4,4.4-4.4,2.4c-.2,0-.3.3-.3.4s.1.4.3.4l4.4,2.4,2.4,4.4c0,.2.3.3.4.3s.4,0,.4-.3l2.4-4.4,4.4-2.4c.2,0,.3-.3.3-.4s0-.4-.3-.4ZM10.3,49.5c0,0-.2.1-.2.2l-2.1,3.8-2.1-3.8c0,0-.1-.2-.2-.2l-3.8-2.1,3.8-2.1c0,0,.2-.1.2-.2l2.1-3.8,2.1,3.8c0,0,.1.2.2.2l3.8,2.1-3.8,2.1Z"/>
  <path class="st0" d="M37.7,13l2.8,1.5,1.5,2.8c0,.2.3.3.4.3s.4-.1.4-.3l1.5-2.8,2.8-1.5c.2,0,.3-.3.3-.4s0-.4-.3-.4l-2.8-1.5-1.5-2.8c-.2-.3-.7-.3-.9,0l-1.5,2.8-2.8,1.5c-.2,0-.3.3-.3.4s.1.3.3.4ZM41.1,11.4c0,0,.2-.1.2-.2l1.2-2.1,1.2,2.1c0,0,.1.2.2.2l2.1,1.2-2.1,1.2c0,0-.2.1-.2.2l-1.2,2.1-1.2-2.1c0,0-.1-.2-.2-.2l-2.1-1.2,2.1-1.2Z"/>
  <path class="st0" d="M49.6,45l-3.8-2.1-2.1-3.8c-.2-.3-.7-.3-.9,0l-2.1,3.8-3.8,2.1c-.2,0-.3.3-.3.4s0,.4.3.4l3.8,2.1,2.1,3.8c0,.2.3.3.4.3s.4,0,.4-.3l2.1-3.8,3.8-2.1c.2,0,.3-.3.3-.4s0-.3-.3-.4ZM45.2,47.2c0,0-.2.1-.2.2l-1.7,3.2-1.7-3.2c0,0-.1-.2-.2-.2l-3.2-1.7,3.2-1.7c0,0,.2-.1.2-.2l1.7-3.2,1.7,3.2c0,0,.1.2.2.2l3.2,1.7-3.2,1.7Z"/>
</svg>